<svg xmlns="http://www.w3.org/2000/svg" version="1.0" preserveAspectRatio="xMidYMid meet" viewBox="396 530.25 483.1 215.75">

<g transform="translate(0.000000,1280.000000) scale(0.100000,-0.100000)" fill="#000000" stroke="none">
<path d="M6276 7486 c-157 -59 -229 -232 -156 -377 42 -84 102 -129 200 -150 43 -9 60 -8 118 10 84 26 133 66 169 139 65 133 11 296 -122 364 -51 27 -156 34 -209 14z"/>
<path d="M3960 6572 c0 -623 1 -663 20 -736 51 -199 201 -372 389 -445 112 -45 181 -51 553 -51 l353 0 -64 38 c-124 73 -234 225 -263 362 l-12 58 -175 4 c-147 3 -182 7 -211 22 -49 26 -78 54 -103 101 -22 40 -22 47 -25 673 l-3 632 -229 0 -230 0 0 -658z"/>
<path d="M7540 7186 c146 -98 213 -195 260 -383 l11 -43 166 0 c102 0 181 -5 207 -12 56 -17 110 -74 124 -131 9 -32 12 -228 12 -661 l0 -616 236 0 235 0 -4 678 c-4 757 -1 724 -78 873 -66 127 -191 238 -328 290 -110 42 -186 48 -556 49 l-350 0 65 -44z"/>
<path d="M5440 7203 c-51 -8 -147 -47 -198 -80 -110 -73 -207 -219 -231 -347 -7 -38 -11 -225 -11 -505 0 -493 4 -530 61 -642 38 -77 145 -186 210 -216 161 -75 336 -70 507 13 77 38 139 92 395 343 l137 136 -161 161 -162 162 -190 -195 c-105 -107 -203 -201 -219 -209 -36 -19 -74 -9 -96 24 -15 23 -17 67 -17 427 0 370 1 403 18 428 23 35 55 48 84 33 11 -6 301 -289 643 -629 397 -395 643 -632 681 -657 84 -54 168 -81 274 -87 111 -7 183 7 278 54 146 73 252 216 283 383 22 115 15 959 -8 1035 -53 174 -163 293 -323 350 -83 29 -226 34 -315 10 -132 -35 -169 -63 -423 -314 l-238 -236 161 -159 160 -160 213 212 c183 182 217 212 243 212 20 0 39 -9 55 -26 l24 -26 3 -401 c2 -296 0 -409 -9 -430 -17 -40 -70 -63 -103 -45 -13 7 -313 300 -666 650 -628 624 -643 639 -723 678 -110 54 -222 72 -337 53z"/>
</g>
</svg>